<?xml version="1.0" standalone="no"?>
<!DOCTYPE svg PUBLIC "-//W3C//DTD SVG 1.1//EN" "http://www.w3.org/Graphics/SVG/1.1/DTD/svg11.dtd">
<svg xmlns="http://www.w3.org/2000/svg" xmlns:xlink="http://www.w3.org/1999/xlink" version="1.1" id="Layer_1" x="0px" y="0px" viewBox="0 0 1920 1080" style="enable-background:new 0 0 1920 1080;" xml:space="preserve" width="1920" height="1080">
<style type="text/css">
	.st0{fill:#ABACAC;}
	.st1{fill:#E50E16;}
	.st2{fill:url(#SVGID_1_);}
	.st3{fill:#545555;}
	.st4{fill:#818282;}
</style>
<g>
	<g>
		<g>
			<path class="st0" d="M51.27,503.79H2.5v-15.15h113.94v15.15H67.67v130.13h-16.4V503.79z"/>
			<path class="st0" d="M144.67,482.41h15.98v62.89c3.6-5.81,8.3-10.76,14.11-14.84c5.81-4.08,13.35-6.12,22.62-6.12     c6.5,0,12.28,1.04,17.33,3.11c5.05,2.08,9.34,5.02,12.87,8.82c3.53,3.81,6.23,8.34,8.1,13.59c1.87,5.26,2.8,11.07,2.8,17.44     v66.62H222.5v-62.54c0-9.94-2.56-17.81-7.68-23.61c-5.12-5.8-12.45-8.7-22-8.7c-4.57,0-8.82,0.79-12.77,2.38     c-3.94,1.59-7.37,3.86-10.27,6.83c-2.91,2.97-5.16,6.53-6.75,10.67c-1.59,4.14-2.39,8.7-2.39,13.66v61.3h-15.98V482.41z"/>
			<path class="st0" d="M282.06,586.8c0.55,5.68,1.93,10.73,4.15,15.15c2.21,4.43,5.05,8.17,8.51,11.21     c3.46,3.04,7.33,5.36,11.62,6.95c4.29,1.59,8.78,2.39,13.49,2.39c7.47,0,13.87-1.38,19.2-4.16c5.32-2.76,10.2-6.43,14.63-11     l9.96,8.92c-5.4,6.09-11.56,10.97-18.47,14.63c-6.92,3.66-15.5,5.5-25.74,5.5c-7.33,0-14.25-1.35-20.75-4.05     c-6.51-2.7-12.18-6.5-17.02-11.41c-4.84-4.91-8.69-10.83-11.52-17.74c-2.84-6.92-4.25-14.53-4.25-22.83     c0-7.75,1.28-15.05,3.84-21.9c2.56-6.85,6.12-12.79,10.69-17.85c4.57-5.05,9.99-9.03,16.29-11.93c6.3-2.91,13.18-4.36,20.65-4.36     c7.89,0,14.94,1.49,21.17,4.46c6.23,2.98,11.48,7.02,15.77,12.14c4.29,5.12,7.54,11.14,9.76,18.06     c2.21,6.92,3.32,14.32,3.32,22.21c0,0.69,0,1.49,0,2.38c0,0.9-0.07,1.97-0.21,3.22H282.06z M351.17,573.73     c-0.42-4.81-1.45-9.39-3.11-13.72c-1.66-4.33-3.91-8.15-6.75-11.45c-2.84-3.3-6.3-5.91-10.38-7.84     c-4.08-1.93-8.75-2.89-14.01-2.89c-4.57,0-8.85,0.89-12.87,2.68c-4.02,1.79-7.54,4.3-10.58,7.53c-3.05,3.23-5.57,7.05-7.58,11.45     c-2.01,4.4-3.29,9.15-3.84,14.24H351.17z"/>
			<path class="st1" d="M657.73,636.82c-12,0-23.12-2.11-33.35-6.33c-10.23-4.22-19.05-9.97-26.45-17.23     c-7.41-7.26-13.23-15.79-17.45-25.56c-4.22-9.78-6.33-20.23-6.33-31.35v-0.45c0-11.11,2.11-21.6,6.33-31.46     c4.22-9.85,10.12-18.45,17.67-25.79c7.56-7.34,16.45-13.12,26.68-17.34c10.22-4.22,21.34-6.33,33.35-6.33s23.12,2.11,33.35,6.33     s19.04,9.97,26.45,17.23c7.41,7.26,13.23,15.78,17.45,25.56c4.22,9.78,6.33,20.23,6.33,31.35v0.45c0,11.12-2.11,21.6-6.33,31.46     c-4.22,9.85-10.12,18.45-17.67,25.78c-7.56,7.34-16.45,13.12-26.68,17.34S669.73,636.82,657.73,636.82z M658.06,597.92     c5.94,0,11.37-1.11,16.27-3.33c4.9-2.22,9.07-5.22,12.49-9c3.42-3.78,6.09-8.18,8.02-13.23c1.93-5.04,2.9-10.37,2.9-16.01v-0.45     c0-5.63-0.97-10.97-2.9-16.01c-1.93-5.04-4.68-9.48-8.25-13.34c-3.57-3.85-7.8-6.92-12.71-9.23c-4.9-2.3-10.33-3.44-16.28-3.44     c-5.95,0-11.33,1.11-16.16,3.33c-4.83,2.22-8.99,5.22-12.49,9c-3.49,3.78-6.17,8.19-8.02,13.23c-1.86,5.04-2.79,10.37-2.79,16.01     v0.45c0,5.64,0.97,10.97,2.9,16.01c1.93,5.04,4.64,9.49,8.14,13.34c3.49,3.86,7.69,6.93,12.59,9.23S652.11,597.92,658.06,597.92z     "/>
			<path class="st1" d="M747.12,478.09h73.59c12,0,22.15,1.48,30.46,4.45c8.3,2.97,15.04,7.11,20.23,12.45     c9.19,8.89,13.78,20.97,13.78,36.24v0.45c0,12-2.89,21.94-8.67,29.79c-5.78,7.86-13.56,13.86-23.34,18.01l37.13,54.24h-49.8     l-31.35-47.13h-0.45h-18.45v47.13h-43.13V478.09z M818.7,552.79c7.41,0,13.11-1.67,17.12-5c4-3.34,6-7.82,6-13.45v-0.45     c0-6.22-2.08-10.85-6.22-13.89c-4.15-3.04-9.86-4.56-17.12-4.56h-28.24v37.35H818.7z"/>
			<path class="st1" d="M960.76,476.98h41.57l66.25,156.73h-46.24L1011,605.92h-60.02l-11.11,27.79h-45.35L960.76,476.98z      M998.55,572.58l-17.34-44.24l-17.56,44.24H998.55z"/>
			<path class="st0" d="M1085.05,488.64h54.38c8.16,0,15.6,1.08,22.31,3.22c6.71,2.15,12.45,5.19,17.23,9.13     c4.77,3.94,8.44,8.75,11,14.42c2.56,5.68,3.84,12.11,3.84,19.3v0.42c0,7.89-1.52,14.77-4.57,20.65     c-3.05,5.88-7.16,10.83-12.35,14.84c-5.19,4.02-11.24,7.02-18.16,9.03c-6.92,2.01-14.25,3.01-22,3.01h-35.28v51.27h-16.4V488.64z      M1137.45,567.92c5.97,0,11.41-0.76,16.34-2.29c4.92-1.53,9.16-3.71,12.69-6.56c3.54-2.84,6.24-6.21,8.12-10.1     c1.88-3.89,2.81-8.26,2.81-13.12v-0.41c0-10.41-3.57-18.29-10.72-23.64s-16.61-8.02-28.41-8.02h-36.83v64.13H1137.45z"/>
			<path class="st0" d="M1252.95,636.2c-4.98,0-9.89-0.69-14.74-2.07c-4.84-1.38-9.13-3.49-12.87-6.33     c-3.73-2.83-6.75-6.33-9.03-10.48c-2.28-4.15-3.42-8.99-3.42-14.53v-0.42c0-5.81,1.1-10.9,3.32-15.26     c2.21-4.36,5.36-7.99,9.44-10.89c4.08-2.91,8.92-5.12,14.53-6.64c5.6-1.52,11.79-2.28,18.57-2.28c6.92,0,12.9,0.42,17.95,1.24     c5.05,0.83,9.99,1.94,14.84,3.32v-3.3c0-9.49-2.77-16.67-8.3-21.55c-5.54-4.88-13.36-7.32-23.45-7.32     c-6.37,0-12.14,0.69-17.33,2.08c-5.19,1.38-10.27,3.25-15.26,5.6l-4.77-13.15c5.95-2.81,11.97-5.05,18.06-6.73     c6.09-1.68,13.08-2.53,20.96-2.53c15.22,0,26.77,3.95,34.66,11.83c7.47,7.47,11.21,17.99,11.21,31.55v65.58h-15.77v-15.98     c-3.74,4.84-8.75,9.1-15.05,12.76C1270.21,634.36,1262.36,636.2,1252.95,636.2z M1256.18,623.12c4.96,0,9.58-0.69,13.86-2.06     c4.27-1.38,8.03-3.34,11.27-5.89c3.24-2.55,5.79-5.58,7.65-9.09c1.86-3.51,2.79-7.4,2.79-11.67v-9.92c-4-1.1-8.55-2.14-13.65-3.1     c-5.1-0.96-10.96-1.44-17.58-1.44c-9.93,0-17.62,1.96-23.07,5.89c-5.45,3.92-8.17,9.12-8.17,15.59v0.42c0,3.3,0.72,6.3,2.17,8.98     c1.45,2.69,3.41,4.92,5.9,6.72c2.48,1.79,5.34,3.17,8.58,4.13C1249.18,622.64,1252.6,623.12,1256.18,623.12z"/>
			<path class="st0" d="M1341.15,526.62h15.98v28.02c1.93-4.43,4.36-8.51,7.26-12.24c2.91-3.74,6.23-6.95,9.96-9.65     c3.74-2.7,7.82-4.74,12.25-6.12c4.43-1.38,9.2-2.01,14.32-1.87v17.23h-1.25c-5.81,0-11.31,1.04-16.5,3.11     c-5.19,2.08-9.72,5.19-13.59,9.34c-3.88,4.15-6.92,9.31-9.13,15.46c-2.22,6.16-3.32,13.25-3.32,21.27v42.76h-15.98V526.62z"/>
			<path class="st0" d="M1461.11,635.79c-4.29,0-8.3-0.56-12.04-1.66c-3.74-1.11-6.95-2.87-9.65-5.29c-2.7-2.42-4.81-5.57-6.33-9.44     c-1.52-3.87-2.28-8.51-2.28-13.91v-64.75h-14.94v-14.11h14.94v-32.38h15.98v32.38h34.03v14.11h-34.03v62.52     c0,6.62,1.66,11.25,4.98,13.87c3.32,2.62,7.68,3.93,13.08,3.93c2.77,0,5.36-0.26,7.78-0.78c2.42-0.52,5.01-1.44,7.78-2.74v13.7     c-2.77,1.52-5.71,2.66-8.82,3.42C1468.48,635.4,1464.99,635.79,1461.11,635.79z"/>
			<path class="st0" d="M1509.06,526.62h15.98v18.68c3.6-5.81,8.3-10.76,14.11-14.84c5.81-4.08,13.35-6.12,22.62-6.12     c6.5,0,12.28,1.04,17.33,3.11c5.05,2.08,9.34,5.02,12.87,8.82c3.53,3.81,6.23,8.34,8.1,13.59c1.87,5.26,2.8,11.07,2.8,17.44     v66.62h-15.98v-62.54c0-9.94-2.56-17.81-7.68-23.61c-5.12-5.8-12.45-8.7-22-8.7c-4.57,0-8.82,0.79-12.77,2.38     c-3.94,1.59-7.37,3.86-10.27,6.83c-2.91,2.97-5.16,6.53-6.75,10.67c-1.59,4.14-2.39,8.7-2.39,13.66v61.3h-15.98V526.62z"/>
			<path class="st0" d="M1646.45,586.8c0.55,5.68,1.94,10.73,4.15,15.15c2.21,4.43,5.05,8.17,8.51,11.21     c3.46,3.04,7.33,5.36,11.63,6.95c4.29,1.59,8.78,2.39,13.49,2.39c7.47,0,13.87-1.38,19.19-4.16c5.32-2.76,10.2-6.43,14.63-11     l9.96,8.92c-5.4,6.09-11.55,10.97-18.47,14.63c-6.92,3.66-15.5,5.5-25.73,5.5c-7.33,0-14.25-1.35-20.76-4.05     c-6.5-2.7-12.18-6.5-17.02-11.41c-4.84-4.91-8.69-10.83-11.52-17.74c-2.84-6.92-4.25-14.53-4.25-22.83     c0-7.75,1.28-15.05,3.84-21.9c2.56-6.85,6.12-12.79,10.69-17.85c4.57-5.05,9.99-9.03,16.3-11.93c6.29-2.91,13.18-4.36,20.65-4.36     c7.89,0,14.94,1.49,21.17,4.46c6.23,2.98,11.49,7.02,15.78,12.14c4.29,5.12,7.54,11.14,9.76,18.06     c2.21,6.92,3.32,14.32,3.32,22.21c0,0.69,0,1.49,0,2.38c0,0.9-0.07,1.97-0.21,3.22H1646.45z M1715.56,573.73     c-0.42-4.81-1.45-9.39-3.12-13.72c-1.66-4.33-3.91-8.15-6.74-11.45c-2.84-3.3-6.3-5.91-10.38-7.84     c-4.08-1.93-8.75-2.89-14.01-2.89c-4.57,0-8.86,0.89-12.87,2.68c-4.02,1.79-7.54,4.3-10.59,7.53c-3.04,3.23-5.57,7.05-7.57,11.45     c-2.01,4.4-3.29,9.15-3.84,14.24H1715.56z"/>
			<path class="st0" d="M1759.77,526.62h15.98v28.02c1.93-4.43,4.36-8.51,7.26-12.24c2.9-3.74,6.23-6.95,9.96-9.65     c3.73-2.7,7.81-4.74,12.24-6.12c4.43-1.38,9.2-2.01,14.32-1.87v17.23h-1.25c-5.81,0-11.31,1.04-16.5,3.11     c-5.19,2.08-9.72,5.19-13.59,9.34c-3.88,4.15-6.92,9.31-9.13,15.46c-2.22,6.16-3.32,13.25-3.32,21.27v42.76h-15.98V526.62z"/>
			<path class="st0" d="M1879.31,635.99c-7.75,0-15.56-1.42-23.45-4.26c-7.89-2.83-14.87-6.67-20.96-11.52l8.09-11.41     c5.81,4.43,11.86,7.82,18.16,10.17c6.3,2.36,12.63,3.53,18.99,3.53c6.5,0,11.83-1.52,15.98-4.57c4.16-3.04,6.23-7.19,6.23-12.46     v-0.42c0-2.62-0.73-4.91-2.18-6.85c-1.45-1.94-3.43-3.63-5.92-5.09c-2.49-1.45-5.37-2.73-8.61-3.84     c-3.25-1.11-6.61-2.15-10.07-3.11c-4.15-1.25-8.34-2.6-12.56-4.05c-4.22-1.45-8.03-3.28-11.42-5.5c-3.39-2.21-6.16-4.98-8.3-8.3     c-2.15-3.32-3.22-7.47-3.22-12.45v-0.42c0-4.57,0.9-8.75,2.7-12.56c1.8-3.8,4.32-7.06,7.58-9.75c3.25-2.7,7.12-4.77,11.62-6.23     c4.49-1.45,9.37-2.18,14.63-2.18c6.64,0,13.35,1.08,20.13,3.22c6.78,2.15,12.94,5.02,18.47,8.61l-7.26,12.04     c-4.98-3.18-10.21-5.71-15.67-7.58c-5.46-1.87-10.83-2.8-16.08-2.8c-6.37,0-11.42,1.49-15.15,4.46c-3.73,2.98-5.6,6.68-5.6,11.1     v0.42c0,2.49,0.76,4.67,2.29,6.54c1.52,1.87,3.56,3.5,6.12,4.88c2.56,1.39,5.5,2.63,8.82,3.73c3.32,1.11,6.77,2.22,10.37,3.32     c4.15,1.24,8.27,2.63,12.35,4.15c4.08,1.52,7.78,3.46,11.1,5.81c3.32,2.36,5.98,5.19,7.99,8.51c2.01,3.32,3.01,7.41,3.01,12.25     v0.42c0,5.12-1.01,9.65-3.01,13.59c-2.01,3.94-4.7,7.3-8.09,10.06c-3.39,2.77-7.4,4.88-12.04,6.33     C1889.72,635.27,1884.71,635.99,1879.31,635.99z"/>
		</g>
		<g>
			<linearGradient id="SVGID_1_" gradientUnits="userSpaceOnUse" x1="382.8064" y1="505.946" x2="474.6106" y2="505.946">
				<stop offset="0" style="stop-color:#741404"/>
				<stop offset="1" style="stop-color:#BB2026"/>
			</linearGradient>
			<polygon class="st2" points="474.61,568.85 382.81,568.85 382.81,443.04 474.61,521.6    "/>
			<polygon class="st1" points="474.63,568.77 566.37,568.94 566.37,443.13 474.63,521.55    "/>
			<rect x="382.99" y="582.83" class="st3" width="91.4" height="54.12"/>
			<rect x="474.39" y="582.83" class="st4" width="91.9" height="54.12"/>
		</g>
	</g>
</g>
</svg>