<?xml version="1.0" standalone="no"?>
<!DOCTYPE svg PUBLIC "-//W3C//DTD SVG 1.1//EN" "http://www.w3.org/Graphics/SVG/1.1/DTD/svg11.dtd">
<svg xmlns="http://www.w3.org/2000/svg" width="640.2100219726562" height="89.62999725341797" viewBox="0 0 640.21 89.63"><defs><style>.cls-1{fill:#c5a95e;}</style></defs><g id="Layer_2" data-name="Layer 2"><g id="Layer_3" data-name="Layer 3"><path d="M2.61,1.87H17.42c5.12,0,7.4.5,9.39,1.36,4.7,2.06,7.55,6.83,7.55,12.88,0,6.77-3.84,12-9.47,13.53v.14a18.67,18.67,0,0,1,1.28,2l10.9,20.14H31.44L20.12,30.85H7.52V51.92H2.61Zm16.8,24.57c6.05,0,9.89-3.92,9.89-10.18,0-4.13-1.63-7.2-4.55-8.76-1.5-.79-3.28-1.21-7.12-1.21H7.52V26.44Z"/><path d="M45.89,1.87H74.08V6.29H50.8V24.51h19v4.42h-19V47.51H75.36v4.41H45.89Z"/><path d="M109.82,36H89.67L84,51.92H78.78L97.15,1.87h5.26l18.37,50.05h-5.2ZM99.71,7.07s-1.07,4.13-1.92,6.48L91.09,31.7h17.23l-6.55-18.15c-.85-2.35-1.92-6.48-1.92-6.48Z"/><path d="M127.54,1.87h4.91V47.51h23.21v4.41H127.54Z"/><path d="M169.33,6.29h-18V1.87h40.86V6.29H174.24V51.92h-4.91Z"/><path d="M210.19,30.42,193.32,1.87h5.62L209.55,20c1.49,2.56,3.06,6,3.06,6h.14s1.5-3.35,3.06-6L226.42,1.87H232l-16.8,28.55v21.5h-5Z"/><path d="M424.43,1c11.61,0,17.8,5.84,17.8,5.84l-2.63,3.7a24.61,24.61,0,0,0-15-5c-12.11,0-20.29,9.33-20.29,21.22,0,12.32,8.47,21.43,19.86,21.43,9.75,0,15.73-7.33,15.73-7.33V32.42h-8.54V28h13.24V51.92H440.1V48.15c0-1.07.07-2.14.07-2.14H440a22.35,22.35,0,0,1-16.3,6.77c-13.67,0-24.49-11-24.49-25.92C399.23,12.41,410.05,1,424.43,1Z"/><path d="M455.11,1.87h14.81c5.13,0,7.4.5,9.4,1.36,4.7,2.06,7.55,6.83,7.55,12.88,0,6.77-3.85,12-9.47,13.53v.14a18.67,18.67,0,0,1,1.28,2l10.89,20.14H484L472.63,30.85H460V51.92h-4.91Zm16.8,24.57c6.06,0,9.9-3.92,9.9-10.18,0-4.13-1.64-7.2-4.56-8.76-1.49-.79-3.27-1.21-7.12-1.21H460V26.44Z"/><path d="M520.46,1A25.3,25.3,0,0,1,546,26.58c0,14.66-11.32,26.2-25.49,26.2S495,41.24,495,26.58A25.3,25.3,0,0,1,520.46,1Zm0,47.2c11.25,0,20.37-9.4,20.37-21.64,0-12-9.12-21-20.37-21s-20.36,9-20.36,21C500.1,38.82,509.14,48.22,520.46,48.22Z"/><path d="M555,1.87h5V34.41c0,8.61,5.55,13.81,14.17,13.81s14.24-5.2,14.24-13.95V1.87h4.91V34.48c0,11.11-7.76,18.3-19.08,18.3S555,45.59,555,34.48Z"/><path d="M605.74,1.87H623c9,0,15.45,5.84,15.45,15.1S632,32.27,623,32.27H610.66V51.92h-4.92Zm16.66,26c6.69,0,11-4.06,11-10.89s-4.35-10.68-11-10.68H610.66V27.86Z"/><path class="cls-1" d="M500.24,75.74l1.88,1.73c-.45,1.28-2,1.25-3.1,1.63s-2.35-.41-3.51.17c0,1.29,1.72.6,2.51,1.33a1.67,1.67,0,0,1,.24.48c.42,1.51,2.18,1.3,3.51,1.44a2.11,2.11,0,0,0,2.3-1.33c.34-1.14,2-1.43,2.2-2.43a4.29,4.29,0,0,1,1.9.06c.4.24.27.58.38.86a2,2,0,0,0,2.13,1.22c.57,0,1.15,0,1.71,0a6.57,6.57,0,0,1,3.53.31c1.17-.42.69-1.31,1.44-1.76a8.46,8.46,0,0,0-3.44-1.75c.05-.26,0-.54.12-.59,1.6-.67,3.1-1.51,5.1-1.38,1.21.07,2.43,0,3.65,0a4.63,4.63,0,0,1,1.66.15c1.42.68,3,.46,4.48.59,7.12.66,14.26.23,21.38.34a12.26,12.26,0,0,0,2.42-.1c1.5-.25,2.23.13,2.6,1.23.14.41.27.82.41,1.26-.22.19-.38.46-.64.54-1.47.46-3,.82-3.77,2-.26.38-1.1.27-1.49-.11a6.76,6.76,0,0,0-2.5-1.06,10,10,0,0,1-2.8-1.31c-1.22-1-3-.78-4.6-.48a1.43,1.43,0,0,0-1.17,1.1c-.09.54-.59.84-1.18,1.24a9.25,9.25,0,0,0-4.88-.62c-1,.06-1.4.5-1.08,1.37,1.66,0,3.28.13,4.1,1.49,0,.4-.36.7-.84.74-3.68.3-7.31,1.08-11.06.8a3.32,3.32,0,0,1-1.64-.22,4.84,4.84,0,0,0-3.91-.31,6.11,6.11,0,0,1-2.16.14c-2.47-.33-4.93.06-7.4,0s-5,0-7.56,0h-7.31c-2.52,0-5.05-.08-7.56,0a35.23,35.23,0,0,1-9.31-.91,6.61,6.61,0,0,0-4.22.2,4.6,4.6,0,0,1-1.88.32c-2.84,0-5.68,0-8.53,0a5.79,5.79,0,0,1-3.64-1.1c-1.28.05-1.67,1-2.67,1.36a28.44,28.44,0,0,0-7.15-.22A7.7,7.7,0,0,1,444,82.59c-.36-.23-.37-.76-.57-1.21-1-.24-2.11,0-3.08-.4a2.18,2.18,0,0,0-1.42.06,5.85,5.85,0,0,1-3.08,0c-2.36-.46-2.79-.18-2.89,1.73,0,.24,0,.48-.06.68-1.2,1.17-2.94.61-4.38.83a21.1,21.1,0,0,0-2.53.35,10,10,0,0,1-4.54.13,4.32,4.32,0,0,0-2.34,0,3.65,3.65,0,0,1-1.68.08,73.27,73.27,0,0,0-13.5,0c-2,.17-4.06.06-6.09,0a7.82,7.82,0,0,0-3.68.72,4.84,4.84,0,0,1-4.51-.12,2.58,2.58,0,0,0-1.46-.58c-2.41.11-4.86-.32-7.25.26a3.21,3.21,0,0,1-1.44.07c-2.64-.66-5.26.17-7.9,0a9.2,9.2,0,0,0-4.37.82,3.25,3.25,0,0,1-2.54,0c-1.67-.61-3.31-1.27-5.26-.59a2.56,2.56,0,0,1-1.65-.14A13,13,0,0,0,353,85c-2.2,0-4.41-.13-6.58,0-10.69.77-21.41.15-32.11.35a12.78,12.78,0,0,1-3.84-.29,4.39,4.39,0,0,0-2.16,0,19.53,19.53,0,0,1-5.06.31q-15.11,0-30.23,0a7.53,7.53,0,0,0-3.28.48,5,5,0,0,1-3.09.22c-4.86-1.06-9.81-.57-14.73-.7a9.73,9.73,0,0,0-4.9.78,5.63,5.63,0,0,1-2.59.33H226.88c-19.1,0-32.6,1.17-51.69,1.43C166.11,88,151.07,89,142,89.16c-1.36,0-35.58,0-47.59-.29-8.17.76-16.39,0-24.54.42-11,.59-21.9.19-32.84.29s-21.78,0-32.67,0c-2,0-3.6-2-4-3.63A18.58,18.58,0,0,1,.1,80.76c.34-1.49,2.28-2.25,4.33-2.47,4.92-.5,9.89-.08,14.79-.42,3-.21,6.15,0,9.11-.67a4.78,4.78,0,0,1,2.35,0,23.82,23.82,0,0,0,5.78.35,3,3,0,0,0,1.19-.11c1.7-.84,3.59-.61,5.44-.62,1.63,0,3.25,0,4.88,0,10.87.2,21.72-.64,32.59-.38,7.27-.76,14.6,0,21.86-.42,9.41-.57,18.81-.13,28.21-.3a8.34,8.34,0,0,0,4.24-.77c1.74,1.44,3.76,1.24,5.8.34a6.48,6.48,0,0,1,3.77-.19,4.61,4.61,0,0,0,2.09,0,5.84,5.84,0,0,1,1.92-.1,33.38,33.38,0,0,0,6-.45c4.19-.41,8.35-.76,12.35.66a3.46,3.46,0,0,0,.64.13,1.62,1.62,0,0,0,.52-.13c2-1.51,4.23-.9,6.25-.1a11,11,0,0,0,7.66.14,12.68,12.68,0,0,1,6.15-.53,24.36,24.36,0,0,0,8.36-.29,4.63,4.63,0,0,1,1.89,0,21,21,0,0,0,9.06.27,5.54,5.54,0,0,1,3.69.73,9.26,9.26,0,0,1,5.28-1.15c2,0,4.06,0,6.09,0a11.56,11.56,0,0,1,3.78.49,6.26,6.26,0,0,0,4.45-.07,6,6,0,0,1,3.72-.25,3.83,3.83,0,0,0,1.41.18c3.45-.74,6.89.12,10.33.12,2.42,0,4.73-.25,7.09-.37a50.64,50.64,0,0,1,9.45.15c2.32.31,4.73,1,7.14.15,2.31.28,4.64-.2,6.93,0a25.86,25.86,0,0,1,3,.79c1.46.32,3,.74,4.13-.52a1.83,1.83,0,0,1,1.79-.26,13.08,13.08,0,0,0,5,0,12.77,12.77,0,0,1,6.8.76,7.6,7.6,0,0,0,6,0,13.76,13.76,0,0,1,7.76-.67,2.64,2.64,0,0,0,.94.12c3.1-.74,6.44,0,9.55-1,1.69-.53,3.47.3,5.23.41a14,14,0,0,0,2.34,0,28.51,28.51,0,0,1,7.72,0,10.49,10.49,0,0,0,3.83,0,8.71,8.71,0,0,1,4.06,0,6.59,6.59,0,0,0,2.65.09c4.43-.68,8.89-.23,13.34-.26a5.44,5.44,0,0,1,3.73,1.08,5.08,5.08,0,0,0,1.36.62,1.9,1.9,0,0,0,1.4-.42c1-1.18,2.58-1.34,4.24-1.34,4,0,8-.07,12,0,1.89,0,3.65-.45,5.53-.44a25.35,25.35,0,0,1,5.93.75,9.8,9.8,0,0,0,3.57.37c2.38-.27,4.77.28,7.18-.29,1.07-.25,2.55-.42,3.47.72.47.6,1.54.47,2.21.13a7.4,7.4,0,0,1,5.32-.23,16.63,16.63,0,0,0,4.06.44q11.82,0,23.64,0A10.94,10.94,0,0,1,448,76a3,3,0,0,0,1.66,0,9.34,9.34,0,0,1,2.63-.27c.41,0,1,.09,1.19-.07,1.48-1,3.23-.63,4.89-.65s3.14-.49,4.8-.41a8.12,8.12,0,0,1,3.25.59,6.14,6.14,0,0,0,3,.55c3.22,0,6.45,0,9.67,0a6.32,6.32,0,0,1,3.11.86c1.38.73,2.7,1.55,4.62,1.4a3.68,3.68,0,0,0,2.54-.84c1.17-1.23,2.74-1.55,4.67-1.44C496.1,75.83,498.21,75.74,500.24,75.74Zm-39,4c1.05.83,1.05.83,1.36.83a2.8,2.8,0,0,0,2.06-.73C463.69,79.16,463.69,79.16,461.2,79.69Zm32.25-.44a5.66,5.66,0,0,0-2.83,0,2,2,0,0,0,0,.58.44.44,0,0,0,.29.27C491.82,80.18,492.81,80.36,493.45,79.25Zm-84.83.35c-.72-.35-.92-.9-1.85-.81-.25.27-.88.39-.91.89C407,80.19,407,80.19,408.62,79.6Zm194,5.7a29.56,29.56,0,0,0,5.3-.23,33.55,33.55,0,0,1,7.6-.88c1.08,0,2,.4,3.09.41,3.14,0,6.27,0,9.43.3s6.15,0,9.23.07a5,5,0,0,0,2.08-.42c1.16-.53,1.19-1.54.08-2.09a5.55,5.55,0,0,0-2.55-.46q-4,0-8,0a7.47,7.47,0,0,1-5.49-1.93A4.35,4.35,0,0,0,619,78.81a2.77,2.77,0,0,0-.77,2.13c-.1,1.35-1.11,2.13-2.88,2.17-1.14,0-2.28-.07-3.41,0a3.36,3.36,0,0,1-3.41-1.49c.92-1.6,3.1-1.56,5-2.21a5.72,5.72,0,0,0-3.08-.35c-1,0-1.5-1.07-2.74-.57-.46.92.09,2-.36,2.95-3.72.5-5,.94-6.6,2.29C601.65,85.23,601.65,85.32,602.59,85.3ZM555,84.22c5,.11,10,.07,15,.29,7.28.33,14.6.08,21.9.09a14.45,14.45,0,0,0,4-.68,2.48,2.48,0,0,0-2-1.54,18,18,0,0,0-6.46-.18c-1.48.23-3,.32-4.5.47-1.82-1-3.9-.62-5.89-.64a6.44,6.44,0,0,1-2.54-.52,6.26,6.26,0,0,0-6.29.5,2.1,2.1,0,0,1-1.56.34,8,8,0,0,0-3.43.42c-1.89.47-3.8,1.14-6,.39a3.14,3.14,0,0,0-3.38.7A1.68,1.68,0,0,0,555,84.22Zm-3.65-.64a33.87,33.87,0,0,0-12.35-1c-.34.4-.66.75-1,1.1A36.94,36.94,0,0,0,551.33,83.58Zm25.91-5c4.13-.26,11.94.17,11.67-1.42a120,120,0,0,0-26.59.08C565.44,78.53,571,79,577.24,78.6Zm-247.5,5.61c1.15-.18,2.45.47,3.88-.8-1.6-.18-2.56-1.39-4.16-.88C329.36,83.19,329.18,83.73,329.74,84.21Zm270.41-4.94a81.2,81.2,0,0,0-12.86,0c.43,1.54,1.46,1.67,12.65,1.52C599.17,80.24,601.87,79.89,600.15,79.27Zm-22-2a.34.34,0,0,0-.21.27.33.33,0,0,0,.46.23c.1,0,.15-.17.22-.26A.36.36,0,0,0,578.13,77.32ZM262.87,0C246.79,0,235,11.54,235,26.32c0,15.14,11.75,27,27.83,27s27.83-11.83,27.83-27C290.7,11.54,278.94,0,262.87,0Zm0,41.75c-8,0-14.36-6.63-14.36-15.43a14.37,14.37,0,1,1,28.72,0C277.23,35.12,270.83,41.75,262.87,41.75ZM368,12v9.23h16V31.88H368v9.59h21V52.13H355.13V1.33H389V12ZM330.62,24.18,343,14.38v37.9h-12.9L311.34,20.34v32H299.22V1.49H311.7l18.92,32.39S330.77,27.23,330.62,24.18Zm.15-22.69H343v.28l-12.24,9.49Z"/></g></g></svg>