<?xml version="1.0" encoding="UTF-8" standalone="no"?>
<!-- Created with Inkscape (http://www.inkscape.org/) -->

<svg
   xmlns:dc="http://purl.org/dc/elements/1.1/"
   xmlns:cc="http://creativecommons.org/ns#"
   xmlns:rdf="http://www.w3.org/1999/02/22-rdf-syntax-ns#"
   xmlns:svg="http://www.w3.org/2000/svg"
   xmlns="http://www.w3.org/2000/svg"
   xmlns:sodipodi="http://sodipodi.sourceforge.net/DTD/sodipodi-0.dtd"
   xmlns:inkscape="http://www.inkscape.org/namespaces/inkscape"
   width="2310.6399"
   height="520"
   id="svg4465"
   version="1.1"
   inkscape:version="0.48.1 "
   sodipodi:docname="Neues Dokument 3">
  <defs
     id="defs4467" />
  <sodipodi:namedview
     id="base"
     pagecolor="#ffffff"
     bordercolor="#666666"
     borderopacity="1.0"
     inkscape:pageopacity="0.0"
     inkscape:pageshadow="2"
     inkscape:zoom="0.67666595"
     inkscape:cx="1155.32"
     inkscape:cy="260"
     inkscape:document-units="px"
     inkscape:current-layer="layer1"
     showgrid="false"
     fit-margin-top="0"
     fit-margin-left="0"
     fit-margin-right="0"
     fit-margin-bottom="0"
     inkscape:window-width="1680"
     inkscape:window-height="990"
     inkscape:window-x="-4"
     inkscape:window-y="-4"
     inkscape:window-maximized="1" />
  <metadata
     id="metadata4470">
    <rdf:RDF>
      <cc:Work
         rdf:about="">
        <dc:format>image/svg+xml</dc:format>
        <dc:type
           rdf:resource="http://purl.org/dc/dcmitype/StillImage" />
        <dc:title></dc:title>
      </cc:Work>
    </rdf:RDF>
  </metadata>
  <g
     inkscape:label="Ebene 1"
     inkscape:groupmode="layer"
     id="layer1"
     transform="translate(-284.91125,-25.46031)">
    <g
       id="g1426"
       transform="matrix(23.858377,0,0,-23.858377,886.35992,208.81623)">
      <path
         inkscape:connector-curvature="0"
         d="m 0,0 4.179,4.392 0.395,0 0,-2.605 3.601,0 0,-2.181 -3.601,0 0,-5.46 c -10e-4,-0.828 0.095,-1.17 0.419,-1.496 0.294,-0.293 0.761,-0.449 1.465,-0.449 0.808,0 1.414,0.258 2.033,0.548 l 0,-2.189 c -0.827,-0.464 -1.784,-0.704 -2.832,-0.704 -1.18,0 -2.124,0.334 -2.747,0.961 -0.632,0.637 -0.896,1.249 -0.896,2.672 l 0,6.117 L 0,-0.394 0,0 z m 33.48,-8.777 c -1.474,-0.98 -2.894,-1.367 -4.678,-1.367 -3.893,0 -5.877,3.047 -5.877,6.008 0,3.533 2.374,6.155 5.671,6.155 3.167,0 5.233,-2.586 4.952,-6.75 l -7.959,0 c 0.164,-1.802 1.405,-2.999 3.574,-2.999 1.5,0 3.024,0.499 4.317,1.453 l 0,-2.5 z m -5.023,8.484 c -1.515,0 -2.553,-0.982 -2.817,-2.537 l 5.376,0 c -0.142,1.593 -1.103,2.537 -2.559,2.537 m 10.325,-7.223 c 0.672,-0.206 1.456,-0.274 2.205,-0.274 2.043,0 3.267,1.574 3.267,3.845 0,2.413 -1.113,3.627 -2.885,3.627 -0.916,0 -1.738,-0.308 -2.587,-1.041 l 0,-6.157 z m 0,8.45 c 0.982,0.721 1.913,1.085 3.051,1.085 2.854,0 5.004,-2.367 5.004,-5.756 0,-3.74 -2.49,-6.432 -6.211,-6.432 -1.396,0 -3.367,0.352 -4.401,0.867 l 0,16.404 2.557,0 0,-6.168 z m 21.805,0.697 1.59,5.471 2.731,0 -2.426,-5.471"
         style="fill:#231f20;fill-opacity:1;fill-rule:nonzero;stroke:none"
         id="path1428" />
    </g>
    <g
       id="g1430"
       transform="matrix(23.858377,0,0,-23.858377,2515.576,281.60718)">
      <path
         inkscape:connector-curvature="0"
         d="m 0,0 c 2.239,-1.075 2.933,-2.079 2.933,-3.446 0,-1.91 -1.586,-3.647 -4.005,-3.647 -1.213,0 -2.622,0.347 -3.945,0.989 l 0,2.663 c 1.317,-0.928 2.86,-1.349 3.764,-1.349 1.078,0 1.629,0.483 1.629,1.128 0,0.723 -0.485,1.029 -1.646,1.562 -2.423,1.121 -3.626,2.059 -3.626,3.834 0,1.779 1.623,3.336 3.885,3.336 1.189,0 2.169,-0.181 3.41,-0.851 l 0,-2.491 c -1.346,0.72 -2.106,1.1 -3.28,1.1 C -1.86,2.828 -2.33,2.396 -2.33,1.82 -2.33,1.181 -1.953,0.938 0,0 m -16.314,-10.64 -2.746,0 2.868,6.004 -4.667,9.473 2.972,0 2.972,-6.705 2.794,6.705 2.771,0 -6.964,-15.477 z M -75.169,5.069 c 3.685,0 5.927,-2.938 5.927,-6.08 0,-3.144 -2.242,-6.082 -5.927,-6.082 -3.686,0 -5.927,2.938 -5.927,6.082 0,3.142 2.241,6.08 5.927,6.08 m 0,-2.414 c -1.924,0 -3.257,-1.565 -3.257,-3.666 0,-2.103 1.333,-3.667 3.257,-3.667 1.924,0 3.257,1.564 3.257,3.667 0,2.101 -1.333,3.666 -3.257,3.666"
         style="fill:#231f20;fill-opacity:1;fill-rule:nonzero;stroke:none"
         id="path1432" />
    </g>
    <path
       inkscape:connector-curvature="0"
       d="m 1205.3216,203.82887 c 20.399,-24.86042 56.1865,-43.18366 88.6578,-43.18366 65.6821,0 87.9181,49.48228 87.9181,99.44172 l 0,185.21257 -61.0536,0 0,-160.7816 c 0,-47.8599 -14.148,-66.27857 -48.5041,-66.27857 -22.6654,0 -46.3568,14.45818 -67.0182,37.55309 l 0,189.50708 -61.0297,0 0,-405.926417 61.0297,0 z M 540.34093,333.69002 c 0,64.82321 -55.44687,117.12077 -128.78752,117.12077 -41.34656,0 -79.80627,-12.78809 -116.6436,-29.84683 l 0,-72.26702 c 39.65262,23.38121 75.86964,40.20136 118.50456,40.20136 38.24497,0 58.76318,-23.35735 58.76318,-51.65338 0,-76.87169 -174.14229,-71.45584 -174.14229,-185.8329 0,-63.081548 53.63363,-115.951711 128.26263,-115.951711 35.07181,0 65.5151,8.851458 96.22083,25.003579 l 0,70.310632 c -25.5046,-19.75473 -63.91659,-33.354011 -95.24264,-33.354011 -42.63492,0 -61.3876,21.329391 -61.3876,47.287311 0,73.91325 174.45245,66.85117 174.45245,188.9822"
       style="fill:#231f20;fill-opacity:1;fill-rule:nonzero;stroke:none"
       id="path1436"
       sodipodi:nodetypes="cssccsscccccccsccssssccssc" />
    <g
       id="g1438"
       transform="matrix(23.858377,0,0,-23.858377,2763.5122,411.18298)" />
  </g>
</svg>
